<?xml version="1.0" encoding="iso-8859-1"?>
<!-- Generator: Adobe Illustrator 19.0.0, SVG Export Plug-In . SVG Version: 6.00 Build 0)  -->
<svg xmlns="http://www.w3.org/2000/svg" xmlns:xlink="http://www.w3.org/1999/xlink" version="1.1" id="Capa_1" x="0px" y="0px" viewBox="0 0 512.002 512.002" style="enable-background:new 0 0 512.002 512.002;" xml:space="preserve" width="512px" height="512px">
<g>
	<g>
		<path d="M183.087,333.055h-15.361c-4.15,0-7.513,3.363-7.513,7.513c0,4.15,3.363,7.513,7.513,7.513h15.361    c4.15,0,7.513-3.363,7.513-7.513C190.6,336.418,187.237,333.055,183.087,333.055z" fill="#fbde79"/>
	</g>
</g>
<g>
	<g>
		<path d="M495.923,368.079h-4.295v-21.432c0-15.858-11.863-29.33-27.594-31.336l-86.684-11.055l-34.009-58.666    c-3.112-5.369-8.901-8.705-15.109-8.705c-5.623,0-10.933,2.731-14.205,7.305c-3.271,4.574-4.138,10.483-2.32,15.806l14.944,43.729    h-137.49l-9.854-64.135c-1.816-11.822-11.815-20.402-23.776-20.402c-13.264,0-24.055,10.791-24.055,24.055v32.207l-88.25,9.652    c-13.597,1.487-23.852,12.923-23.852,26.602v55.042H17.2c-0.551,0-1.1,0.03-1.646,0.083c-0.258,0.025-0.51,0.07-0.765,0.106    c-0.274,0.039-0.547,0.073-0.819,0.125c-0.33,0.063-0.653,0.145-0.976,0.227c-0.185,0.047-0.372,0.09-0.556,0.143    c-0.359,0.104-0.709,0.224-1.058,0.35c-0.095,0.034-0.193,0.059-0.287,0.095c-0.056,0.021-0.109,0.049-0.164,0.071    c-0.309,0.122-0.612,0.253-0.912,0.392c-0.082,0.038-0.165,0.066-0.247,0.106c-0.073,0.035-0.141,0.08-0.214,0.116    c-0.362,0.181-0.717,0.373-1.064,0.578c-0.155,0.091-0.308,0.184-0.46,0.28c-0.32,0.203-0.631,0.416-0.937,0.639    c-0.089,0.065-0.186,0.12-0.273,0.186c-0.122,0.092-0.234,0.188-0.351,0.281c-0.1,0.08-0.202,0.158-0.301,0.241    c-0.299,0.248-0.59,0.502-0.879,0.777c-0.085,0.078-0.171,0.16-0.251,0.242l-0.001-0.001c-0.779,0.78-1.484,1.634-2.093,2.535    c-0.305,0.45-0.595,0.927-0.864,1.422c-0.534,0.982-0.974,2.023-1.308,3.095c-0.152,0.49-0.275,0.987-0.383,1.488    c-0.032,0.149-0.057,0.299-0.085,0.449c-0.07,0.375-0.128,0.752-0.173,1.132c-0.019,0.155-0.039,0.31-0.053,0.467    C0.032,382.894,0,383.418,0,383.946v10.952c0,9.845,8.009,17.853,17.854,17.853H50.67c2.234,9.973,7.209,19.451,14.955,27.197    c10.885,10.884,25.184,16.328,39.483,16.328c14.299,0,28.597-5.443,39.483-16.328c7.746-7.746,12.721-17.224,14.955-27.197    h187.681c2.234,9.973,7.209,19.451,14.955,27.197c10.885,10.884,25.184,16.327,39.482,16.327c14.299,0,28.597-5.442,39.483-16.327    h0.001c7.746-7.746,12.721-17.224,14.955-27.197h39.074c9.277,0,16.825-7.547,16.825-16.825v-11.771    C512,375.291,504.788,368.079,495.923,368.079z M325.928,255.136c-0.353-1.032,0.051-1.825,0.324-2.206    c0.272-0.381,0.891-1.019,1.981-1.019c0.867,0,1.675,0.466,2.109,1.215l29.333,50.599h-17.143L325.928,255.136z M146.5,243.243    h0.002c0-4.979,4.05-9.029,9.029-9.029c4.489,0,8.242,3.221,8.924,7.657l9.503,61.853h-8.727c-3.769,0-6.836-3.066-6.836-6.835    c0-0.462-0.019-0.923-0.049-1.381c-0.01-0.165-0.025-0.329-0.039-0.494c-0.024-0.284-0.054-0.567-0.09-0.85    c-0.025-0.203-0.05-0.405-0.081-0.607c-0.034-0.219-0.076-0.437-0.116-0.655c-0.094-0.512-0.206-1.019-0.335-1.519    c-0.019-0.072-0.035-0.146-0.055-0.218c-0.087-0.324-0.185-0.643-0.287-0.961c-0.021-0.065-0.042-0.129-0.063-0.193    c-0.468-1.417-1.077-2.771-1.813-4.047c-0.007-0.012-0.014-0.024-0.021-0.036c-0.732-1.262-1.586-2.444-2.551-3.533    c-0.065-0.073-0.128-0.147-0.194-0.219c-0.199-0.218-0.402-0.431-0.61-0.642c-0.102-0.103-0.206-0.204-0.31-0.306    c-0.2-0.194-0.4-0.388-0.607-0.574c-0.017-0.015-0.032-0.031-0.049-0.046c-0.109-0.097-0.222-0.188-0.333-0.282    c-0.319-0.275-0.646-0.54-0.982-0.797c-0.191-0.146-0.381-0.293-0.576-0.432c-0.168-0.119-0.339-0.233-0.511-0.348    c-0.213-0.143-0.427-0.282-0.644-0.417c-0.156-0.097-0.313-0.193-0.472-0.286c-0.298-0.175-0.599-0.341-0.904-0.501    c-0.069-0.036-0.134-0.077-0.203-0.113V243.243z M49.336,397.724H17.854c-1.559,0-2.827-1.268-2.827-2.826v-10.952    c0-0.196,0.035-0.383,0.084-0.564c0.019-0.07,0.038-0.139,0.064-0.206c0.019-0.049,0.038-0.097,0.06-0.143    c0.104-0.224,0.242-0.429,0.413-0.603c0.008-0.008,0.017-0.017,0.026-0.025c0.005-0.005,0.025-0.023,0.042-0.037    c0.024-0.023,0.052-0.042,0.078-0.064c0.032-0.026,0.06-0.049,0.11-0.087c0.114-0.087,0.24-0.163,0.358-0.22    c0.052-0.024,0.104-0.048,0.175-0.075c0.129-0.049,0.254-0.085,0.379-0.11c0.118-0.021,0.238-0.035,0.362-0.037    c0.008,0,0.017-0.002,0.025-0.002l35.289-0.004C50.678,386.872,49.6,392.24,49.336,397.724z M133.965,429.322    c-15.911,15.914-41.803,15.912-57.714,0c-10.438-10.438-14.029-25.17-10.772-38.563c0.011-0.045,0.024-0.089,0.035-0.133    c0.134-0.543,0.28-1.084,0.437-1.622c0.063-0.216,0.133-0.431,0.199-0.646c0.113-0.367,0.23-0.734,0.354-1.098    c0.087-0.255,0.179-0.508,0.27-0.762c0.118-0.325,0.239-0.649,0.366-0.971c0.103-0.264,0.208-0.526,0.317-0.788    c0.132-0.316,0.269-0.63,0.409-0.943c0.114-0.255,0.227-0.511,0.346-0.764c0.156-0.332,0.322-0.66,0.488-0.989    c0.058-0.115,0.115-0.23,0.174-0.345c0.087-0.168,0.173-0.337,0.263-0.504c0.201-0.376,0.41-0.749,0.623-1.119    c0.143-0.248,0.291-0.494,0.439-0.739c0.045-0.074,0.091-0.148,0.137-0.222c0.165-0.269,0.33-0.538,0.501-0.803    c0.196-0.303,0.399-0.601,0.604-0.899c0.194-0.283,0.386-0.566,0.588-0.844c0.241-0.332,0.492-0.658,0.743-0.983    c0.186-0.242,0.368-0.486,0.56-0.724c0.298-0.369,0.61-0.729,0.922-1.089c0.163-0.189,0.32-0.381,0.487-0.567    c0.488-0.543,0.99-1.076,1.51-1.596c7.708-7.709,17.956-11.954,28.857-11.954c1.363,0,2.715,0.066,4.054,0.197    c9.37,0.918,18.059,5.011,24.803,11.756c0.074,0.074,0.141,0.151,0.214,0.225c0.439,0.446,0.87,0.897,1.286,1.36    c0.194,0.216,0.377,0.44,0.566,0.659c0.284,0.329,0.569,0.658,0.842,0.995c0.21,0.26,0.409,0.526,0.611,0.79    c0.233,0.303,0.467,0.606,0.691,0.915c0.215,0.297,0.421,0.599,0.627,0.9c0.19,0.278,0.38,0.556,0.563,0.838    c0.219,0.338,0.431,0.68,0.639,1.023c0.148,0.244,0.295,0.49,0.438,0.737c0.224,0.388,0.442,0.777,0.652,1.17    c0.103,0.193,0.203,0.387,0.303,0.581c0.232,0.453,0.46,0.907,0.674,1.366c0.05,0.107,0.097,0.215,0.146,0.322    C149.084,398.546,146.337,416.949,133.965,429.322z M430.521,429.322c-15.913,15.911-41.804,15.913-57.715,0    c-12.367-12.367-15.117-30.759-8.26-45.811c0.054-0.118,0.105-0.236,0.16-0.353c0.21-0.45,0.433-0.895,0.661-1.338    c0.105-0.205,0.211-0.409,0.32-0.613c0.205-0.383,0.417-0.762,0.635-1.14c0.15-0.26,0.304-0.517,0.46-0.774    c0.201-0.331,0.405-0.66,0.616-0.987c0.193-0.297,0.393-0.59,0.593-0.883c0.197-0.287,0.392-0.574,0.597-0.857    c0.238-0.329,0.487-0.651,0.736-0.974c0.188-0.244,0.372-0.49,0.566-0.731c0.297-0.368,0.608-0.727,0.919-1.086    c0.164-0.19,0.321-0.383,0.489-0.57c0.488-0.543,0.99-1.076,1.51-1.596c0.493-0.493,0.996-0.971,1.508-1.434    c0.07-0.064,0.144-0.122,0.214-0.185c0.451-0.402,0.905-0.797,1.369-1.175c0.012-0.01,0.026-0.02,0.038-0.03    c7.467-6.073,16.596-9.11,25.726-9.11c9.126,0,18.252,3.035,25.716,9.102c0.016,0.013,0.034,0.026,0.05,0.039    c0.457,0.373,0.905,0.763,1.35,1.159c0.077,0.069,0.157,0.133,0.234,0.202c0.504,0.455,0.998,0.926,1.484,1.411    c0.008,0.008,0.016,0.015,0.024,0.022c0.002,0.002,0.003,0.004,0.005,0.005c0.549,0.548,1.079,1.117,1.597,1.698    c0.123,0.138,0.239,0.28,0.36,0.42c0.41,0.473,0.813,0.953,1.201,1.446c0.096,0.122,0.19,0.245,0.285,0.368    c0.425,0.552,0.838,1.113,1.236,1.687c0.046,0.066,0.093,0.132,0.138,0.199c0.453,0.664,0.89,1.34,1.306,2.031    c0.009,0.014,0.02,0.027,0.028,0.041c0.017,0.029,0.036,0.057,0.053,0.086c0.104,0.174,0.202,0.352,0.303,0.529    c0.212,0.368,0.419,0.737,0.618,1.111c0.104,0.195,0.206,0.392,0.306,0.589c0.183,0.357,0.361,0.717,0.533,1.079    c0.098,0.207,0.198,0.414,0.293,0.623c0.167,0.366,0.324,0.735,0.479,1.105c0.084,0.201,0.173,0.401,0.255,0.603    c0.214,0.533,0.416,1.07,0.607,1.61c0.088,0.249,0.166,0.501,0.249,0.752c0.106,0.322,0.213,0.644,0.312,0.968    c0.084,0.276,0.16,0.553,0.238,0.831c0.088,0.312,0.173,0.625,0.253,0.94c0.068,0.265,0.133,0.53,0.195,0.796    c0.085,0.365,0.164,0.73,0.239,1.096c0.043,0.211,0.089,0.422,0.129,0.634C444.155,405.668,440.418,419.425,430.521,429.322z     M447.073,367.985c-0.33-0.461-0.672-0.917-1.018-1.37c-0.193-0.254-0.388-0.506-0.586-0.757    c-0.297-0.375-0.597-0.748-0.905-1.118c-0.296-0.357-0.6-0.706-0.905-1.055c-0.244-0.279-0.485-0.559-0.735-0.834    c-0.546-0.599-1.103-1.188-1.674-1.761c-0.035-0.036-0.068-0.073-0.103-0.109c-0.157-0.157-0.321-0.301-0.48-0.456    c-0.519-0.507-1.039-1.012-1.574-1.496c-0.153-0.138-0.312-0.266-0.466-0.403c-0.561-0.497-1.125-0.989-1.702-1.46    c-0.051-0.042-0.104-0.08-0.155-0.121c-9.908-8.042-22.169-12.418-35.106-12.418c-12.957,0-25.236,4.388-35.153,12.453    c-0.034,0.028-0.07,0.054-0.104,0.082c-0.619,0.506-1.224,1.031-1.824,1.565c-0.113,0.1-0.229,0.194-0.342,0.295    c-0.7,0.634-1.388,1.286-2.061,1.959c-0.651,0.651-1.281,1.316-1.895,1.993c-0.203,0.224-0.394,0.456-0.594,0.682    c-0.404,0.46-0.807,0.92-1.194,1.391c-0.215,0.262-0.42,0.53-0.63,0.796c-0.357,0.451-0.713,0.902-1.055,1.363    c-0.196,0.263-0.383,0.531-0.573,0.797c-0.345,0.481-0.685,0.964-1.013,1.455c-0.161,0.241-0.317,0.484-0.473,0.727    c-0.348,0.538-0.688,1.08-1.016,1.628c-0.117,0.196-0.233,0.394-0.347,0.591c-0.362,0.622-0.712,1.25-1.049,1.884    c-0.067,0.125-0.133,0.251-0.198,0.376c-0.385,0.737-0.752,1.482-1.103,2.235c-0.011,0.024-0.023,0.049-0.034,0.073    c-3.011,6.487-4.767,13.518-5.115,20.751H160.879c-0.348-7.237-2.105-14.271-5.119-20.76c-0.008-0.016-0.016-0.033-0.023-0.049    c-0.355-0.761-0.726-1.515-1.115-2.26c-0.061-0.118-0.124-0.235-0.186-0.353c-0.342-0.643-0.696-1.28-1.064-1.911    c-0.11-0.189-0.22-0.377-0.332-0.564c-0.334-0.558-0.68-1.11-1.034-1.657c-0.151-0.234-0.301-0.467-0.455-0.699    c-0.335-0.501-0.682-0.995-1.035-1.486c-0.184-0.256-0.364-0.514-0.552-0.768c-0.35-0.47-0.713-0.932-1.078-1.393    c-0.203-0.256-0.4-0.515-0.608-0.768c-0.395-0.481-0.806-0.951-1.219-1.42c-0.191-0.218-0.375-0.44-0.57-0.655    c-0.615-0.678-1.246-1.345-1.897-1.996c-10.546-10.547-24.568-16.355-39.483-16.355c-14.915,0-28.937,5.808-39.484,16.354    c-0.651,0.651-1.282,1.318-1.897,1.995c-0.198,0.219-0.384,0.444-0.579,0.665c-0.409,0.465-0.817,0.932-1.209,1.409    c-0.212,0.258-0.413,0.522-0.62,0.783c-0.239,0.302-0.485,0.6-0.717,0.906L34.4,366.744v-55.041    c0-5.998,4.496-11.012,10.459-11.664l90.93-9.945c0.593-0.065,1.179-0.045,1.75,0.039c0.056,0.011,0.111,0.027,0.167,0.037    c1.211,0.21,2.298,0.731,3.189,1.468c0.023,0.019,0.046,0.036,0.068,0.055c0.278,0.236,0.536,0.495,0.773,0.772    c0.023,0.027,0.045,0.056,0.068,0.084c0.476,0.575,0.858,1.227,1.124,1.934c0.008,0.02,0.016,0.04,0.023,0.061    c0.127,0.347,0.224,0.707,0.294,1.077c0.008,0.044,0.013,0.089,0.021,0.133c0.062,0.371,0.101,0.749,0.101,1.136    c0,12.054,9.807,21.862,21.863,21.862h207.007l89.895,11.465c8.249,1.053,14.469,8.117,14.469,16.431v21.432h-29.459    C447.12,368.047,447.096,368.017,447.073,367.985z M495.176,397.724H457.42c-0.088-1.747-0.263-3.488-0.513-5.217    c-0.004-0.029-0.008-0.059-0.012-0.088c-0.117-0.803-0.253-1.604-0.405-2.401c-0.043-0.227-0.091-0.453-0.137-0.68    c-0.109-0.536-0.225-1.071-0.35-1.604c-0.068-0.295-0.135-0.59-0.209-0.884c-0.169-0.672-0.347-1.341-0.54-2.007    c-0.099-0.343-0.209-0.683-0.315-1.024c-0.074-0.238-0.143-0.477-0.22-0.714h41.203c0.579,0,1.051,0.471,1.051,1.05v11.771h0.001    C496.974,396.917,496.167,397.724,495.176,397.724z" fill="#fbde79"/>
	</g>
</g>
<g>
	<g>
		<path d="M401.664,373.626c-14.8,0-26.839,12.04-26.839,26.839c0,14.799,12.04,26.839,26.839,26.839    c14.799,0,26.838-12.04,26.838-26.839C428.502,385.667,416.462,373.626,401.664,373.626z M401.664,412.279    c-6.513,0-11.813-5.299-11.813-11.813s5.299-11.813,11.813-11.813s11.812,5.299,11.812,11.813S408.177,412.279,401.664,412.279z" fill="#fbde79"/>
	</g>
</g>
<g>
	<g>
		<path d="M105.108,373.626c-14.8,0-26.839,12.04-26.839,26.839c0,14.799,12.04,26.839,26.839,26.839    c14.799,0,26.838-12.04,26.838-26.839C131.946,385.667,119.907,373.626,105.108,373.626z M105.108,412.279    c-6.513,0-11.813-5.299-11.813-11.813s5.299-11.813,11.813-11.813c6.514,0,11.812,5.299,11.812,11.813    S111.622,412.279,105.108,412.279z" fill="#fbde79"/>
	</g>
</g>
<g>
	<g>
		<path d="M344.232,73.824c-11.898-11.671-27.631-18.099-44.3-18.099c-16.613,0-32.203,6.37-43.93,17.726    c-11.727-11.356-27.317-17.726-43.93-17.726c-16.669,0-32.402,6.428-44.3,18.099c-11.881,11.655-18.612,27.229-18.95,43.852    c-0.087,4.149,3.208,7.58,7.356,7.665c0.053,0.001,0.105,0.002,0.157,0.002c4.077,0,7.425-3.264,7.508-7.36    c0.532-26.044,22.166-47.232,48.228-47.232c14.937,0,28.793,6.757,38.013,18.539c1.423,1.82,3.606,2.883,5.917,2.883    c2.311,0,4.493-1.063,5.917-2.883c9.22-11.782,23.076-18.539,38.013-18.539c26.062,0,47.695,21.188,48.228,47.232    c0.083,4.096,3.43,7.36,7.508,7.36c0.052,0,0.104-0.001,0.157-0.002c4.148-0.084,7.443-3.516,7.358-7.665    C362.843,101.053,356.113,85.48,344.232,73.824z" fill="#fbde79"/>
	</g>
</g>
<g>
	<g>
		<path d="M350.922,146.033c-3.733-1.818-8.229-0.265-10.046,3.464c-19.51,40.053-72.259,64.913-84.88,70.397    c-12.627-5.474-65.323-30.263-84.872-70.397c-1.817-3.73-6.311-5.283-10.044-3.464c-3.73,1.817-5.282,6.314-3.464,10.044    c10.448,21.45,29.766,41.275,57.419,58.923c20.33,12.975,37.507,19.754,38.228,20.036c0.88,0.344,1.81,0.517,2.738,0.517    c0.928,0,1.858-0.172,2.738-0.517c0.721-0.283,17.898-7.061,38.228-20.036c27.652-17.648,46.97-37.473,57.419-58.923    C356.204,152.347,354.652,147.85,350.922,146.033z" fill="#fbde79"/>
	</g>
</g>
<g>
</g>
<g>
</g>
<g>
</g>
<g>
</g>
<g>
</g>
<g>
</g>
<g>
</g>
<g>
</g>
<g>
</g>
<g>
</g>
<g>
</g>
<g>
</g>
<g>
</g>
<g>
</g>
<g>
</g>
</svg>
