<?xml version="1.0" encoding="iso-8859-1"?>
<!-- Generator: Adobe Illustrator 19.0.0, SVG Export Plug-In . SVG Version: 6.00 Build 0)  -->
<svg xmlns="http://www.w3.org/2000/svg" xmlns:xlink="http://www.w3.org/1999/xlink" version="1.1" id="Capa_1" x="0px" y="0px" viewBox="0 0 512 512" style="enable-background:new 0 0 512 512;" xml:space="preserve" width="512px" height="512px">
<g>
	<g>
		<g>
			<path d="M202.667,245.333h-21.333c-5.896,0-10.667,4.771-10.667,10.667c0,11.76,9.573,21.333,21.333,21.333     s21.333-9.573,21.333-21.333C213.333,250.104,208.563,245.333,202.667,245.333z" fill="#fbde79"/>
			<path d="M330.667,245.333h-21.333c-5.896,0-10.667,4.771-10.667,10.667c0,11.76,9.573,21.333,21.333,21.333     s21.333-9.573,21.333-21.333C341.333,250.104,336.563,245.333,330.667,245.333z" fill="#fbde79"/>
			<path d="M440.49,170.667h-59.076c-5.94-24.441-21.57-37.285-34.799-47.875c-10.01-8.01-18.656-14.927-21.688-25.604     c-7.749-27.292-28.302-49.402-48.099-59.38c-1.052-6.349-3.828-12.426-6.422-17.911c-1.448-3.063-3.625-7.677-3.74-9.229v-0.031     c0-0.021,0-0.031,0-0.031v-0.031v-0.01v-0.031C266.594,4.698,261.844,0,256,0c-5.875,0-10.646,4.75-10.667,10.625     c-0.125,1.625-2.302,6.229-3.74,9.271c-2.594,5.486-5.37,11.563-6.422,17.911c-19.797,9.978-40.35,32.089-48.099,59.38     c-3.031,10.677-11.677,17.594-21.688,25.604c-13.229,10.59-28.859,23.434-34.799,47.875H71.51C32.083,170.667,0,202.75,0,242.177     c0,16.75,1.198,33.656,3.563,50.24l10.417,72.854c5,35,35.438,61.396,70.792,61.396c16.814,0,32.589-6.134,45.208-16.514     C128.831,411.854,128,413.79,128,416v10.667C128,473.719,166.281,512,213.333,512c47.052,0,85.333-38.281,85.333-85.333v-44.49     c4.207-1.494,7.777-4.078,10.97-7.073c12.059-4.333,23.331-10.087,33.678-16.908l24.414,36.626     c13.292,19.938,35.531,31.844,59.5,31.844c35.354,0,65.792-26.396,70.792-61.396l10.417-72.854     c2.365-16.583,3.563-33.49,3.563-50.24C512,202.75,479.917,170.667,440.49,170.667z M178.708,139.458     c11.792-9.438,23.99-19.198,28.885-36.438c8.75-30.823,36.313-49.688,48.406-49.688s39.656,18.865,48.406,49.688     c4.896,17.24,17.094,27,28.885,36.438c12.234,9.784,23.087,18.65,27.371,35.661c-0.9,0.28-1.805,0.564-2.632,1.089     c-20.896,13.531-46.969,26.375-67.917,36.688c-16.25,8-27.146,13.365-34.115,17.896c-6.969-4.531-17.865-9.896-34.115-17.896     c-20.948-10.313-47.021-23.156-67.917-36.688c-0.823-0.529-1.728-0.815-2.629-1.095     C155.625,158.105,166.475,149.241,178.708,139.458z M126.521,382.99c-9.323,13.99-24.927,22.344-41.75,22.344     c-24.813,0-46.167-18.521-49.667-43.083l-10.417-72.854c-2.229-15.583-3.354-31.469-3.354-47.219     C21.333,214.51,43.844,192,71.51,192H128h1.227c-14.431,20.095-22.56,42.366-22.56,64.375c0,32.361,17.426,64.719,45.009,88.878     L126.521,382.99z M134.467,406.202c3.564-3.474,6.979-7.142,9.803-11.379l24.414-36.626c10.348,6.82,21.62,12.574,33.678,16.908     c3.193,2.995,6.763,5.579,10.97,7.073v44.49c0,5.885-4.781,10.667-10.667,10.667c-5.885,0-10.667-4.781-10.667-10.667V416     c0-5.896-4.771-10.667-10.667-10.667h-42.667C137.173,405.333,135.758,405.648,134.467,406.202z M320,347.348v-38.014     c0-5.896-4.771-10.667-10.667-10.667c-5.896,0-10.667,4.771-10.667,10.667V352c0,5.885-4.781,10.667-10.667,10.667     c-5.896,0-10.667,4.771-10.667,10.667v53.333c0,35.292-28.708,64-64,64c-35.292,0-64-28.708-64-64h21.333     c0,17.646,14.354,32,32,32c17.646,0,32-14.354,32-32v-53.333c0-5.896-4.771-10.667-10.667-10.667     c-5.885,0-10.667-4.781-10.667-10.667v-42.667c0-5.896-4.771-10.667-10.667-10.667c-5.896,0-10.667,4.771-10.667,10.667v38.014     c-37.988-19.889-64-55.628-64-90.973c0-19.417,7.833-39.5,22.229-57.323c20.25,12.313,43.281,23.656,62.229,32.979     c9.314,4.587,19.943,9.848,27.096,13.818c-0.826,2.048-1.336,4.26-1.336,6.599c0,1.792,0,7.25,9.01,20.281     c1.99,2.885,5.271,4.604,8.771,4.604s6.781-1.719,8.771-4.604c9.01-13.031,9.01-18.49,9.01-20.281     c0-2.339-0.51-4.551-1.336-6.599c7.154-3.97,17.783-9.23,27.096-13.818c18.948-9.323,41.979-20.667,62.229-32.979     C376.167,216.875,384,236.958,384,256.375C384,291.72,357.988,327.458,320,347.348z M487.313,289.396l-10.417,72.854     c-3.5,24.563-24.854,43.083-49.667,43.083c-16.823,0-32.427-8.354-41.75-22.344l-25.155-37.737     c27.583-24.159,45.009-56.517,45.009-88.878c0-22.009-8.129-44.28-22.56-64.375H384h56.49c27.667,0,50.177,22.51,50.177,50.177     C490.667,257.927,489.542,273.813,487.313,289.396z" fill="#fbde79"/>
			<circle cx="256" cy="138.667" r="10.667" fill="#fbde79"/>
			<circle cx="256" cy="192" r="21.333" fill="#fbde79"/>
		</g>
	</g>
</g>
<g>
</g>
<g>
</g>
<g>
</g>
<g>
</g>
<g>
</g>
<g>
</g>
<g>
</g>
<g>
</g>
<g>
</g>
<g>
</g>
<g>
</g>
<g>
</g>
<g>
</g>
<g>
</g>
<g>
</g>
</svg>
