<?xml version="1.0"?>
<svg xmlns="http://www.w3.org/2000/svg" height="512px" viewBox="0 0 496 496.00099" width="512px"><path d="m248 368c22.054688 0 40-17.941406 40-40 0-22.054688-17.945312-40-40-40s-40 17.945312-40 40c0 22.058594 17.945312 40 40 40zm0-64c13.234375 0 24 10.769531 24 24 0 13.234375-10.765625 24-24 24-13.230469 0-24-10.765625-24-24 0-13.230469 10.769531-24 24-24zm0 0" fill="#fbde79"/><path d="m208 432h80v16h-80zm0 0" fill="#fbde79"/><path d="m491.878906 137c-2.550781-1.414062-5.65625-1.335938-8.117187.210938l-64 40c-2.335938 1.46875-3.761719 4.03125-3.761719 6.789062v41.472656c-2.511719-.894531-5.183594-1.472656-8-1.472656-13.230469 0-24 10.769531-24 24 0 13.234375 10.769531 24 24 24 13.234375 0 24-10.765625 24-24v-59.566406l48-30v51.039062c-2.511719-.894531-5.183594-1.472656-8-1.472656-13.230469 0-24 10.769531-24 24 0 13.234375 10.769531 24 24 24 13.234375 0 24-10.765625 24-24v-88c0-2.910156-1.574219-5.582031-4.121094-7zm-83.878906 119c-4.40625 0-8-3.589844-8-8 0-4.40625 3.59375-8 8-8 4.410156 0 8 3.59375 8 8 0 4.410156-3.589844 8-8 8zm64-16c-4.40625 0-8-3.589844-8-8 0-4.40625 3.59375-8 8-8 4.410156 0 8 3.59375 8 8 0 4.410156-3.589844 8-8 8zm0 0" fill="#fbde79"/><path d="m336 144c13.234375 0 24-10.765625 24-24v-68.253906l32-26.664063v46.917969h16v-64c0-3.101562-1.800781-5.925781-4.609375-7.246094-2.820313-1.3125-6.125-.890625-8.511719 1.101563l-48 40c-1.824218 1.523437-2.878906 3.769531-2.878906 6.144531v49.472656c-2.511719-.894531-5.183594-1.472656-8-1.472656-13.230469 0-24 10.769531-24 24 0 13.234375 10.769531 24 24 24zm0-32c4.410156 0 8 3.59375 8 8 0 4.410156-3.589844 8-8 8-4.40625 0-8-3.589844-8-8 0-4.40625 3.59375-8 8-8zm0 0" fill="#fbde79"/><path d="m112 296v-68.253906l32-26.664063v46.917969h16v-64c0-3.101562-1.800781-5.925781-4.609375-7.246094-2.8125-1.304687-6.125-.882812-8.511719 1.101563l-48 40c-1.824218 1.523437-2.878906 3.769531-2.878906 6.144531v49.472656c-2.511719-.894531-5.183594-1.472656-8-1.472656-13.230469 0-24 10.769531-24 24 0 13.234375 10.769531 24 24 24 13.234375 0 24-10.765625 24-24zm-32 0c0-4.414062 3.59375-8 8-8 4.410156 0 8 3.585938 8 8 0 4.417969-3.589844 8-8 8-4.40625 0-8-3.582031-8-8zm0 0" fill="#fbde79"/><path d="m112 50.753906v30.71875c-2.511719-.894531-5.183594-1.472656-8-1.472656-13.230469 0-24 10.769531-24 24 0 13.234375 10.769531 24 24 24 13.234375 0 24-10.765625 24-24v-96c0-2.527344-1.191406-4.910156-3.222656-6.414062-2.03125-1.5039068-4.65625-1.96875-7.074219-1.25l-80 24c-3.382813 1.015624-5.703125 4.136718-5.703125 7.664062v49.472656c-2.511719-.894531-5.183594-1.472656-8-1.472656-13.230469 0-24 10.769531-24 24 0 13.234375 10.769531 24 24 24 13.234375 0 24-10.765625 24-24v-34.046875zm-8 61.246094c-4.40625 0-8-3.589844-8-8 0-4.40625 3.59375-8 8-8 4.410156 0 8 3.59375 8 8 0 4.410156-3.589844 8-8 8zm8-93.246094v15.296875l-64 19.199219v-15.296875zm-88 93.246094c-4.40625 0-8-3.589844-8-8 0-4.40625 3.59375-8 8-8 4.410156 0 8 3.59375 8 8 0 4.410156-3.589844 8-8 8zm0 0" fill="#fbde79"/><path d="m400 432h-67.40625c2.167969-7.640625 3.40625-15.671875 3.40625-24 0-20.488281-7.128906-40.152344-20.160156-55.917969 2.761718-7.738281 4.160156-15.816406 4.160156-24.082031 0-31.277344-20.078125-57.886719-48-67.800781v-187.703125l7.9375-63.503906c.285156-2.277344-.425781-4.566407-1.945312-6.289063-1.511719-1.71875-3.695313-2.703125-5.992188-2.703125h-48c-2.296875 0-4.480469.984375-6 2.703125-1.519531 1.722656-2.222656 4.011719-1.945312 6.289063l7.945312 63.503906v187.714844c-27.917969 9.910156-48 36.519531-48 67.796874 0 8.265626 1.402344 16.34375 4.160156 24.082032-13.03125 15.757812-20.160156 35.421875-20.160156 55.910156 0 8.328125 1.242188 16.359375 3.410156 24h-67.410156c-4.414062 0-8 3.578125-8 8v48c0 4.425781 3.585938 8 8 8h304c4.417969 0 8-3.574219 8-8v-48c0-4.421875-3.582031-8-8-8zm-144-240h-16v-16h16zm0-32h-16v-16h16zm0-32h-16v-16h16zm0-32h-16v-16h16zm-16 112h16v16h-16zm22.9375-192-6 48h-17.871094l-6-48zm-22.9375 240v-16h16v16zm-44.734375 103.113281c2.167969-2.335937 2.734375-5.734375 1.453125-8.65625-3.125-7.136719-4.71875-14.6875-4.71875-22.457031 0-30.871094 25.121094-56 56-56s56 25.128906 56 56c0 7.769531-1.589844 15.320312-4.71875 22.457031-1.28125 2.921875-.703125 6.320313 1.457031 8.65625 12.421875 13.382813 19.261719 30.75 19.261719 48.886719 0 39.703125-32.304688 72-72 72s-72-32.296875-72-72c0-18.136719 6.839844-35.503906 19.265625-48.886719zm-91.265625 120.886719v-32h65.710938c6.570312 12.800781 16.152343 23.785156 27.847656 32zm288 0h-93.558594c11.695313-8.214844 21.277344-19.199219 27.847656-32h65.710938zm0 0" fill="#fbde79"/></svg>
